<mxfile host="app.diagrams.net" agent="Mozilla/5.0 (Windows NT 10.0; Win64; x64) AppleWebKit/537.36 (KHTML, like Gecko) Chrome/126.0.0.0 Safari/537.36" version="24.7.4">
  <diagram name="Page-1" id="f6cHR_1DN295GHWSh3FP">
    <mxGraphModel dx="2229" dy="1695" grid="1" gridSize="10" guides="1" tooltips="1" connect="1" arrows="1" fold="1" page="1" pageScale="1" pageWidth="850" pageHeight="1100" math="0" shadow="0">
      <root>
        <mxCell id="0" />
        <mxCell id="1" parent="0" />
        <mxCell id="2" value="user" style="shape=umlLifeline;perimeter=lifelinePerimeter;whiteSpace=wrap;container=1;dropTarget=0;collapsible=0;recursiveResize=0;outlineConnect=0;portConstraint=eastwest;newEdgeStyle={&quot;edgeStyle&quot;:&quot;elbowEdgeStyle&quot;,&quot;elbow&quot;:&quot;vertical&quot;,&quot;curved&quot;:0,&quot;rounded&quot;:0};size=65;" parent="1" vertex="1">
          <mxGeometry x="-10" width="150" height="510" as="geometry" />
        </mxCell>
        <mxCell id="3" value="system interface " style="shape=umlLifeline;perimeter=lifelinePerimeter;whiteSpace=wrap;container=1;dropTarget=0;collapsible=0;recursiveResize=0;outlineConnect=0;portConstraint=eastwest;newEdgeStyle={&quot;edgeStyle&quot;:&quot;elbowEdgeStyle&quot;,&quot;elbow&quot;:&quot;vertical&quot;,&quot;curved&quot;:0,&quot;rounded&quot;:0};size=65;" parent="1" vertex="1">
          <mxGeometry x="230" width="150" height="510" as="geometry" />
        </mxCell>
        <mxCell id="4" value="Initiate Order" style="verticalAlign=bottom;edgeStyle=elbowEdgeStyle;elbow=vertical;curved=0;rounded=0;endArrow=block;" parent="1" source="2" target="3" edge="1">
          <mxGeometry relative="1" as="geometry">
            <Array as="points">
              <mxPoint x="207" y="107" />
            </Array>
          </mxGeometry>
        </mxCell>
        <mxCell id="WvRLPE3z4W5rrNrjSwvM-6" value="order management system" style="rounded=0;whiteSpace=wrap;html=1;" vertex="1" parent="1">
          <mxGeometry x="470" width="150" height="70" as="geometry" />
        </mxCell>
        <mxCell id="WvRLPE3z4W5rrNrjSwvM-9" value=" Inventory&amp;nbsp;management system" style="rounded=0;whiteSpace=wrap;html=1;" vertex="1" parent="1">
          <mxGeometry x="710" width="160" height="70" as="geometry" />
        </mxCell>
        <mxCell id="WvRLPE3z4W5rrNrjSwvM-11" value=" Shipping Management System" style="shape=umlLifeline;perimeter=lifelinePerimeter;whiteSpace=wrap;container=1;dropTarget=0;collapsible=0;recursiveResize=0;outlineConnect=0;portConstraint=eastwest;newEdgeStyle={&quot;edgeStyle&quot;:&quot;elbowEdgeStyle&quot;,&quot;elbow&quot;:&quot;vertical&quot;,&quot;curved&quot;:0,&quot;rounded&quot;:0};size=65;" vertex="1" parent="1">
          <mxGeometry x="960" width="150" height="510" as="geometry" />
        </mxCell>
        <mxCell id="WvRLPE3z4W5rrNrjSwvM-16" value="" style="endArrow=none;dashed=1;html=1;dashPattern=1 3;strokeWidth=2;rounded=0;entryX=0.5;entryY=1;entryDx=0;entryDy=0;" edge="1" parent="1" target="WvRLPE3z4W5rrNrjSwvM-6">
          <mxGeometry width="50" height="50" relative="1" as="geometry">
            <mxPoint x="545" y="510" as="sourcePoint" />
            <mxPoint x="720" y="150" as="targetPoint" />
          </mxGeometry>
        </mxCell>
        <mxCell id="WvRLPE3z4W5rrNrjSwvM-17" value="" style="endArrow=none;html=1;rounded=0;" edge="1" parent="1">
          <mxGeometry width="50" height="50" relative="1" as="geometry">
            <mxPoint x="30" y="510" as="sourcePoint" />
            <mxPoint x="1400" y="510" as="targetPoint" />
          </mxGeometry>
        </mxCell>
        <mxCell id="WvRLPE3z4W5rrNrjSwvM-18" value="" style="endArrow=none;dashed=1;html=1;dashPattern=1 3;strokeWidth=2;rounded=0;" edge="1" parent="1">
          <mxGeometry width="50" height="50" relative="1" as="geometry">
            <mxPoint x="800" y="78.1" as="sourcePoint" />
            <mxPoint x="800" y="510.0048200334822" as="targetPoint" />
          </mxGeometry>
        </mxCell>
        <mxCell id="WvRLPE3z4W5rrNrjSwvM-19" value=" Forward Order Request " style="verticalAlign=bottom;edgeStyle=elbowEdgeStyle;elbow=horizontal;curved=0;rounded=0;endArrow=block;" edge="1" parent="1">
          <mxGeometry relative="1" as="geometry">
            <Array as="points">
              <mxPoint x="452" y="120" />
            </Array>
            <mxPoint x="310" y="120" as="sourcePoint" />
            <mxPoint x="550" y="120" as="targetPoint" />
          </mxGeometry>
        </mxCell>
        <mxCell id="WvRLPE3z4W5rrNrjSwvM-20" value="" style="verticalAlign=bottom;edgeStyle=elbowEdgeStyle;elbow=vertical;curved=0;rounded=0;endArrow=classic;endSize=10;" edge="1" parent="1">
          <mxGeometry relative="1" as="geometry">
            <Array as="points">
              <mxPoint x="693" y="140" />
            </Array>
            <mxPoint x="550" y="140" as="sourcePoint" />
            <mxPoint x="791" y="140" as="targetPoint" />
          </mxGeometry>
        </mxCell>
        <mxCell id="WvRLPE3z4W5rrNrjSwvM-21" value="Check Stock Availability" style="text;whiteSpace=wrap;html=1;" vertex="1" parent="1">
          <mxGeometry x="590" y="110" width="160" height="40" as="geometry" />
        </mxCell>
        <mxCell id="WvRLPE3z4W5rrNrjSwvM-22" value="" style="verticalAlign=bottom;edgeStyle=elbowEdgeStyle;elbow=vertical;curved=0;rounded=0;endArrow=classic;endSize=10;" edge="1" parent="1">
          <mxGeometry relative="1" as="geometry">
            <Array as="points">
              <mxPoint x="943" y="150" />
            </Array>
            <mxPoint x="800" y="150" as="sourcePoint" />
            <mxPoint x="1041" y="150" as="targetPoint" />
          </mxGeometry>
        </mxCell>
        <mxCell id="WvRLPE3z4W5rrNrjSwvM-23" value="Stock Availability Response" style="text;whiteSpace=wrap;html=1;" vertex="1" parent="1">
          <mxGeometry x="840" y="120" width="180" height="40" as="geometry" />
        </mxCell>
        <mxCell id="WvRLPE3z4W5rrNrjSwvM-24" value="" style="verticalAlign=bottom;edgeStyle=elbowEdgeStyle;elbow=vertical;curved=0;rounded=0;endArrow=classic;endSize=10;" edge="1" parent="1">
          <mxGeometry relative="1" as="geometry">
            <Array as="points">
              <mxPoint x="800" y="180" />
            </Array>
            <mxPoint x="630" y="180" as="sourcePoint" />
            <mxPoint x="550" y="180" as="targetPoint" />
          </mxGeometry>
        </mxCell>
        <mxCell id="WvRLPE3z4W5rrNrjSwvM-25" value="Stock Availability Response" style="text;whiteSpace=wrap;html=1;" vertex="1" parent="1">
          <mxGeometry x="600" y="160" width="180" height="40" as="geometry" />
        </mxCell>
        <mxCell id="WvRLPE3z4W5rrNrjSwvM-26" value="" style="verticalAlign=bottom;edgeStyle=elbowEdgeStyle;elbow=vertical;curved=0;rounded=0;endArrow=classic;endSize=10;" edge="1" parent="1">
          <mxGeometry relative="1" as="geometry">
            <Array as="points">
              <mxPoint x="530" y="200" />
            </Array>
            <mxPoint x="390" y="200" as="sourcePoint" />
            <mxPoint x="310" y="200" as="targetPoint" />
          </mxGeometry>
        </mxCell>
        <mxCell id="WvRLPE3z4W5rrNrjSwvM-27" value="" style="verticalAlign=bottom;edgeStyle=elbowEdgeStyle;elbow=vertical;curved=0;rounded=0;endArrow=classic;endSize=10;" edge="1" parent="1">
          <mxGeometry relative="1" as="geometry">
            <Array as="points" />
            <mxPoint x="560" y="210" as="sourcePoint" />
            <mxPoint x="801" y="210" as="targetPoint" />
          </mxGeometry>
        </mxCell>
        <mxCell id="WvRLPE3z4W5rrNrjSwvM-28" value="Forward Order Details" style="text;whiteSpace=wrap;html=1;" vertex="1" parent="1">
          <mxGeometry x="590" y="190" width="150" height="40" as="geometry" />
        </mxCell>
        <mxCell id="WvRLPE3z4W5rrNrjSwvM-29" value="" style="verticalAlign=bottom;edgeStyle=elbowEdgeStyle;elbow=vertical;curved=0;rounded=0;endArrow=classic;endSize=10;" edge="1" parent="1">
          <mxGeometry relative="1" as="geometry">
            <Array as="points" />
            <mxPoint x="800" y="230" as="sourcePoint" />
            <mxPoint x="1041" y="230" as="targetPoint" />
          </mxGeometry>
        </mxCell>
        <mxCell id="WvRLPE3z4W5rrNrjSwvM-30" value="Schedule Shipment" style="text;whiteSpace=wrap;html=1;" vertex="1" parent="1">
          <mxGeometry x="850" y="200" width="140" height="40" as="geometry" />
        </mxCell>
        <mxCell id="WvRLPE3z4W5rrNrjSwvM-31" value="" style="verticalAlign=bottom;edgeStyle=elbowEdgeStyle;elbow=vertical;curved=0;rounded=0;endArrow=classic;endSize=10;" edge="1" parent="1">
          <mxGeometry relative="1" as="geometry">
            <Array as="points">
              <mxPoint x="1035" y="270" />
            </Array>
            <mxPoint x="975" y="270" as="sourcePoint" />
            <mxPoint x="805" y="270" as="targetPoint" />
          </mxGeometry>
        </mxCell>
        <mxCell id="WvRLPE3z4W5rrNrjSwvM-33" value="Shipment Confirmation" style="text;whiteSpace=wrap;html=1;" vertex="1" parent="1">
          <mxGeometry x="850" y="240" width="160" height="40" as="geometry" />
        </mxCell>
        <mxCell id="WvRLPE3z4W5rrNrjSwvM-35" value="" style="verticalAlign=bottom;edgeStyle=elbowEdgeStyle;elbow=vertical;curved=0;rounded=0;endArrow=classic;endSize=10;" edge="1" parent="1">
          <mxGeometry relative="1" as="geometry">
            <Array as="points">
              <mxPoint x="790" y="280" />
            </Array>
            <mxPoint x="710" y="280" as="sourcePoint" />
            <mxPoint x="550" y="280" as="targetPoint" />
          </mxGeometry>
        </mxCell>
        <mxCell id="WvRLPE3z4W5rrNrjSwvM-36" value="Order Status Update" style="text;whiteSpace=wrap;html=1;" vertex="1" parent="1">
          <mxGeometry x="600" y="260" width="140" height="40" as="geometry" />
        </mxCell>
        <mxCell id="WvRLPE3z4W5rrNrjSwvM-37" value="" style="verticalAlign=bottom;edgeStyle=elbowEdgeStyle;elbow=vertical;curved=0;rounded=0;endArrow=classic;endSize=10;" edge="1" parent="1">
          <mxGeometry relative="1" as="geometry">
            <Array as="points">
              <mxPoint x="448" y="300" />
            </Array>
            <mxPoint x="305" y="300" as="sourcePoint" />
            <mxPoint x="546" y="300" as="targetPoint" />
          </mxGeometry>
        </mxCell>
        <mxCell id="WvRLPE3z4W5rrNrjSwvM-38" value="Update Order Status" style="text;whiteSpace=wrap;html=1;" vertex="1" parent="1">
          <mxGeometry x="370" y="270" width="140" height="40" as="geometry" />
        </mxCell>
        <mxCell id="WvRLPE3z4W5rrNrjSwvM-39" value=" Notification Service" style="shape=umlLifeline;perimeter=lifelinePerimeter;whiteSpace=wrap;container=1;dropTarget=0;collapsible=0;recursiveResize=0;outlineConnect=0;portConstraint=eastwest;newEdgeStyle={&quot;edgeStyle&quot;:&quot;elbowEdgeStyle&quot;,&quot;elbow&quot;:&quot;vertical&quot;,&quot;curved&quot;:0,&quot;rounded&quot;:0};size=65;" vertex="1" parent="1">
          <mxGeometry x="1210" y="-10" width="150" height="510" as="geometry" />
        </mxCell>
        <mxCell id="WvRLPE3z4W5rrNrjSwvM-42" value="" style="verticalAlign=bottom;edgeStyle=elbowEdgeStyle;elbow=vertical;curved=0;rounded=0;endArrow=classic;endSize=10;" edge="1" parent="1">
          <mxGeometry relative="1" as="geometry">
            <Array as="points">
              <mxPoint x="1183" y="280" />
            </Array>
            <mxPoint x="1040" y="280" as="sourcePoint" />
            <mxPoint x="1281" y="280" as="targetPoint" />
          </mxGeometry>
        </mxCell>
        <mxCell id="WvRLPE3z4W5rrNrjSwvM-43" value="" style="verticalAlign=bottom;edgeStyle=elbowEdgeStyle;elbow=vertical;curved=0;rounded=0;endArrow=classic;endSize=10;" edge="1" parent="1" target="WvRLPE3z4W5rrNrjSwvM-11">
          <mxGeometry relative="1" as="geometry">
            <Array as="points">
              <mxPoint x="1275" y="330" />
            </Array>
            <mxPoint x="1125" y="330" as="sourcePoint" />
            <mxPoint x="1060" y="330" as="targetPoint" />
          </mxGeometry>
        </mxCell>
        <mxCell id="WvRLPE3z4W5rrNrjSwvM-44" value="Send Notification" style="text;whiteSpace=wrap;html=1;" vertex="1" parent="1">
          <mxGeometry x="1080" y="250" width="120" height="40" as="geometry" />
        </mxCell>
        <mxCell id="WvRLPE3z4W5rrNrjSwvM-45" value="Send Confirmation" style="text;whiteSpace=wrap;html=1;" vertex="1" parent="1">
          <mxGeometry x="1090" y="300" width="130" height="40" as="geometry" />
        </mxCell>
        <mxCell id="WvRLPE3z4W5rrNrjSwvM-46" value="" style="verticalAlign=bottom;edgeStyle=elbowEdgeStyle;elbow=vertical;curved=0;rounded=0;endArrow=classic;endSize=10;" edge="1" parent="1">
          <mxGeometry relative="1" as="geometry">
            <Array as="points">
              <mxPoint x="290" y="390" />
            </Array>
            <mxPoint x="150" y="390" as="sourcePoint" />
            <mxPoint x="70" y="390" as="targetPoint" />
          </mxGeometry>
        </mxCell>
        <mxCell id="WvRLPE3z4W5rrNrjSwvM-47" value="Receive Order Status" style="text;whiteSpace=wrap;html=1;" vertex="1" parent="1">
          <mxGeometry x="130" y="360" width="150" height="40" as="geometry" />
        </mxCell>
      </root>
    </mxGraphModel>
  </diagram>
</mxfile>
